<svg width="164" height="312" viewBox="0 0 164 312" fill="none" xmlns="http://www.w3.org/2000/svg">
<path d="M-39.5562 304.127C-121.321 277.979 -166.408 190.498 -140.26 108.733C-114.112 26.9677 -26.6307 -18.1188 55.1343 8.02927C136.899 34.1773 181.986 121.658 155.838 203.423C129.69 285.188 42.2088 330.275 -39.5562 304.127ZM40.5559 53.6159C-16.0323 35.5193 -76.5763 66.7229 -94.673 123.311C-112.77 179.899 -81.566 240.443 -24.9778 258.54C31.6104 276.637 92.1544 245.433 110.251 188.845C128.348 132.257 97.1441 71.7125 40.5559 53.6159Z" fill="url(#paint0_linear_945_22390)"/>
<path d="M-39.5562 304.127C-121.321 277.979 -166.408 190.498 -140.26 108.733C-114.112 26.9677 -26.6307 -18.1188 55.1343 8.02927C136.899 34.1773 181.986 121.658 155.838 203.423C129.69 285.188 42.2088 330.275 -39.5562 304.127ZM40.5559 53.6159C-16.0323 35.5193 -76.5763 66.7229 -94.673 123.311C-112.77 179.899 -81.566 240.443 -24.9778 258.54C31.6104 276.637 92.1544 245.433 110.251 188.845C128.348 132.257 97.1441 71.7125 40.5559 53.6159Z" fill="white" fill-opacity="0.27"/>
<defs>
<linearGradient id="paint0_linear_945_22390" x1="-39.1227" y1="177.847" x2="218.561" y2="58.6763" gradientUnits="userSpaceOnUse">
<stop stop-color="#21295C"/>
<stop offset="1" stop-color="#8DFF8B"/>
</linearGradient>
</defs>
</svg>
