<svg width="600" height="600" viewBox="0 0 600 600" fill="none" xmlns="http://www.w3.org/2000/svg">
<rect width="600" height="600" fill="#04152B"/>
<path d="M300.082 103.05C328.376 103.05 356.669 102.963 384.962 103.05C411.316 103.167 431.203 118.628 436.71 143.274C437.591 147.546 438.004 151.901 437.942 156.262C438.019 212.848 438.019 269.428 437.942 326.002C437.942 357.254 415.99 379 384.749 379H214.553C184.107 379 162 356.837 162 326.303C162 269.716 162 213.136 162 156.562C162 124.991 183.564 103.215 215.203 103.041C243.496 102.944 271.789 103.05 300.082 103.05ZM261.356 160.481C262.597 166.514 266.291 167.542 271.469 168.241C285.49 170.18 299.685 172.12 313.24 176C339.342 183.566 361.41 198.396 380.744 217.368C382.053 218.649 383.721 220.462 385.253 220.482C398.207 220.724 398.236 220.627 404.849 208.726C406.788 205.195 408.815 201.675 410.463 197.998C416.436 184.7 423.65 172.091 422.903 156.388C421.827 133.749 407.787 118.56 385.088 118.376C359.219 118.152 333.35 118.298 307.519 118.376C305.779 118.318 304.064 118.795 302.603 119.743C287.249 131.593 273.397 145.274 261.356 160.481ZM378.165 225.467C371.165 219.512 364.658 213.469 357.629 208.096C331.566 188.183 301.983 177.814 269.258 176.407C267.756 176.34 265.632 176.825 264.798 177.862C261.628 181.742 258.884 186.029 255.345 191.054C265.965 224.854 281.732 256.814 302.089 285.808C302.749 286.778 304.678 286.894 306.065 287.224C310.525 288.262 315.325 288.523 319.358 290.425C322.131 291.734 323.78 291.792 326.262 290.425C339.581 283.093 351.888 274.058 362.875 263.547C367.839 258.795 372.493 253.722 377.167 248.921C372.348 240.802 373.065 233.498 378.165 225.496V225.467ZM401.824 254.313C395.686 254.614 391.391 255.642 387.522 254.779C383.653 253.916 382.024 255.148 379.814 257.602C365.657 273.334 349.591 286.7 330.877 296.749C327.697 298.456 326.456 300.163 327.057 303.858C327.383 306.414 327.004 309.01 325.961 311.366C324.759 314.12 325.331 315.837 327.328 317.699C341.737 331.091 356.113 344.525 370.457 358.001C375.363 362.627 380.948 363.937 387.629 363.694C405.082 363.083 420.372 350.164 421.866 332.734C422.981 319.727 422.457 306.594 422.612 293.509C422.626 292.544 422.399 291.591 421.953 290.735C415.059 278.203 408.107 265.681 401.824 254.343V254.313ZM229.233 310.861C246.866 311.893 264.559 310.549 281.834 306.865C287.313 305.711 292.161 304.625 292.626 297.806C292.742 296.995 293.128 296.246 293.722 295.682C296.446 293.073 295.419 290.832 293.596 288.135C274.101 259.537 258.828 228.278 248.247 195.321C247.074 191.665 245.28 189.948 241.246 190.472C223.91 221.714 215.416 255.283 215.212 291.016C215.212 292.073 215.91 293.79 216.715 294.11C224.259 297.166 227.837 303.073 229.233 310.89V310.861ZM361.75 363.723C347.884 349.979 334.096 336.225 320.134 322.656C319.164 321.686 316.692 321.57 315.179 321.996C307.151 324.247 300.276 322.442 295.264 315.895C293.004 312.985 291.104 312.985 287.982 313.771C270.599 318.199 252.662 320.062 234.74 319.3C230.561 319.086 226.78 318.679 224.666 323.422C223.935 324.695 222.798 325.686 221.437 326.235C218.422 327.564 218.247 329.504 218.974 332.423C221.156 341.153 223.202 349.979 224.957 358.825C225.733 362.783 227.536 363.83 231.492 363.82C271.246 363.655 311 363.723 350.677 363.723H361.75ZM177.591 303.228C181.848 304.198 185.785 305.168 189.692 306.138C192.3 306.778 193.832 306.332 195.51 303.635C197.473 300.334 200.286 297.621 203.654 295.779C206.971 294.139 207.533 292.258 207.533 289.105C207.339 269.27 209.792 249.677 216.124 230.909C220.972 216.602 227.158 202.712 233.431 188.959C235.37 184.671 232.462 183.139 231.065 180.578C230.673 179.977 230.143 179.479 229.519 179.124C228.895 178.77 228.195 178.57 227.478 178.541C210.412 181.213 193.694 185.767 177.63 192.121L177.591 303.228ZM177.591 182.828C186.638 180.132 195.044 177.358 203.625 175.147C210.965 173.207 218.46 171.985 225.926 170.481C227.866 170.083 237.669 157.387 237.29 155.428C234.983 143.245 232.617 131.062 230.251 118.773C223.406 118.773 216.444 118.249 209.598 118.87C192.213 120.461 178.939 133.749 177.746 151.179C177.01 161.645 177.591 172.188 177.591 182.858V182.828ZM217.268 363.374C214.941 352.588 212.74 342.035 210.287 331.521C210.064 330.551 208.406 329.581 207.232 329.242C204.333 328.464 201.656 327.015 199.42 325.011C197.183 323.008 195.448 320.507 194.356 317.709C193.804 316.291 192.718 315.145 191.331 314.518C186.909 313.257 182.352 312.462 177.756 311.472C174.44 345.265 190.303 366.09 217.268 363.403V363.374ZM245.105 153.924C252.746 157.571 256.605 154.215 261.036 148.997C268.793 139.802 277.791 131.586 286.333 123.022C287.718 121.812 289.186 120.7 290.726 119.695L289.756 118.725H238.89C241.043 131.101 243.147 142.944 245.105 153.953V153.924ZM404.975 225.448C409.212 232.082 411.345 235.933 408.96 240.967C405.518 248.261 409.426 252.606 412.742 257.747C415.011 261.268 417.037 264.944 419.189 268.543C420.014 269.93 420.886 271.288 422.389 273.703V193.197L404.975 225.448ZM247.103 181.383C248.231 181.442 249.359 181.275 250.421 180.891C251.483 180.508 252.459 179.917 253.29 179.152C254.12 178.386 254.79 177.463 255.26 176.435C255.729 175.408 255.989 174.297 256.023 173.168C256.077 171.999 255.898 170.83 255.498 169.731C255.097 168.631 254.483 167.621 253.691 166.76C252.898 165.899 251.944 165.203 250.881 164.713C249.819 164.223 248.67 163.948 247.5 163.905C246.331 163.892 245.171 164.112 244.087 164.551C243.004 164.991 242.018 165.642 241.188 166.466C240.358 167.29 239.7 168.271 239.252 169.351C238.805 170.432 238.576 171.591 238.58 172.76C238.563 173.888 238.771 175.007 239.191 176.053C239.611 177.099 240.235 178.051 241.026 178.854C241.818 179.656 242.761 180.293 243.801 180.727C244.841 181.162 245.957 181.385 247.083 181.383H247.103ZM391.914 246.37C394.188 246.332 396.358 245.407 397.961 243.793C399.564 242.179 400.473 240.002 400.495 237.727C400.422 235.365 399.436 233.123 397.742 231.475C396.049 229.826 393.782 228.9 391.42 228.891C390.251 228.939 389.104 229.22 388.045 229.718C386.987 230.215 386.038 230.919 385.255 231.788C384.472 232.657 383.871 233.674 383.486 234.779C383.101 235.884 382.94 237.054 383.013 238.222C383.198 243.082 386.863 246.438 391.895 246.341L391.914 246.37ZM309.323 313.577C310.495 313.624 311.665 313.429 312.758 313.005C313.852 312.58 314.847 311.934 315.68 311.108C316.513 310.281 317.168 309.292 317.602 308.202C318.036 307.111 318.241 305.943 318.204 304.77C318.181 302.492 317.277 300.312 315.683 298.685C314.09 297.058 311.928 296.111 309.652 296.041C307.284 296.061 305.019 297.01 303.343 298.684C301.668 300.359 300.716 302.624 300.693 304.993C300.703 307.269 301.616 309.448 303.23 311.052C304.844 312.655 307.028 313.553 309.303 313.548L309.323 313.577ZM219.973 311.482C219.899 309.114 218.897 306.871 217.182 305.237C215.467 303.603 213.178 302.711 210.81 302.753C208.528 302.849 206.375 303.836 204.812 305.502C203.249 307.169 202.402 309.382 202.452 311.666C202.44 312.839 202.668 314.001 203.123 315.082C203.578 316.162 204.25 317.138 205.097 317.948C205.944 318.758 206.949 319.386 208.048 319.792C209.148 320.198 210.319 320.374 211.489 320.309C213.766 320.199 215.913 319.219 217.489 317.571C219.064 315.923 219.946 313.733 219.954 311.453L219.973 311.482Z" fill="#5CCC96"/>
<path d="M261.696 415.344H239.04V474H228.192V415.344H205.44V405.84H261.696V415.344ZM256.751 459.312C256.751 456.112 257.647 453.328 259.439 450.96C261.295 448.528 263.823 446.672 267.023 445.392C270.223 444.048 273.935 443.376 278.159 443.376C280.399 443.376 282.671 443.536 284.975 443.856C287.343 444.176 289.423 444.688 291.215 445.392V442.224C291.215 438.704 290.159 435.952 288.047 433.968C285.935 431.984 282.895 430.992 278.927 430.992C276.111 430.992 273.455 431.504 270.959 432.528C268.463 433.488 265.807 434.864 262.991 436.656L259.439 429.552C262.767 427.312 266.095 425.648 269.423 424.56C272.815 423.472 276.367 422.928 280.079 422.928C286.799 422.928 292.079 424.72 295.919 428.304C299.823 431.824 301.775 436.848 301.775 443.376V462.096C301.775 463.312 301.967 464.176 302.351 464.688C302.799 465.2 303.535 465.488 304.559 465.552V474C303.599 474.192 302.735 474.32 301.967 474.384C301.199 474.448 300.559 474.48 300.047 474.48C297.807 474.48 296.111 473.936 294.959 472.848C293.807 471.76 293.135 470.48 292.943 469.008L292.655 466.128C290.479 468.944 287.695 471.12 284.303 472.656C280.911 474.192 277.487 474.96 274.031 474.96C270.703 474.96 267.727 474.288 265.103 472.944C262.479 471.536 260.431 469.648 258.959 467.28C257.487 464.912 256.751 462.256 256.751 459.312ZM288.719 462.384C289.487 461.552 290.095 460.72 290.543 459.888C290.991 459.056 291.215 458.32 291.215 457.68V451.92C289.423 451.216 287.535 450.704 285.551 450.384C283.567 450 281.615 449.808 279.695 449.808C275.855 449.808 272.719 450.576 270.287 452.112C267.919 453.648 266.734 455.76 266.734 458.448C266.734 459.92 267.119 461.328 267.887 462.672C268.719 464.016 269.871 465.104 271.343 465.936C272.879 466.768 274.767 467.184 277.007 467.184C279.311 467.184 281.519 466.736 283.631 465.84C285.743 464.944 287.439 463.792 288.719 462.384ZM314.682 403.92H325.242V459.504C325.242 462.064 325.626 463.696 326.394 464.4C327.162 465.104 328.122 465.456 329.274 465.456C330.554 465.456 331.738 465.328 332.826 465.072C333.978 464.816 334.97 464.496 335.802 464.112L337.338 472.464C335.802 473.104 333.978 473.648 331.866 474.096C329.754 474.544 327.866 474.768 326.202 474.768C322.618 474.768 319.802 473.776 317.754 471.792C315.706 469.744 314.682 466.928 314.682 463.344V403.92ZM366.021 474.96C362.053 474.96 358.501 474.288 355.365 472.944C352.229 471.536 349.509 469.616 347.205 467.184C344.965 464.752 343.237 462 342.021 458.928C340.805 455.792 340.197 452.464 340.197 448.944C340.197 445.424 340.805 442.096 342.021 438.96C343.237 435.824 344.965 433.072 347.205 430.704C349.509 428.272 352.229 426.384 355.365 425.04C358.565 423.632 362.117 422.928 366.021 422.928C369.925 422.928 373.445 423.632 376.581 425.04C379.781 426.384 382.501 428.272 384.741 430.704C387.045 433.072 388.805 435.824 390.021 438.96C391.237 442.096 391.845 445.424 391.845 448.944C391.845 452.464 391.237 455.792 390.021 458.928C388.805 462 387.045 464.752 384.741 467.184C382.501 469.616 379.781 471.536 376.581 472.944C373.445 474.288 369.925 474.96 366.021 474.96ZM351.045 449.04C351.045 452.24 351.717 455.12 353.061 457.68C354.405 460.24 356.197 462.256 358.437 463.728C360.677 465.2 363.205 465.936 366.021 465.936C368.773 465.936 371.269 465.2 373.509 463.728C375.813 462.192 377.637 460.144 378.981 457.584C380.325 454.96 380.997 452.08 380.997 448.944C380.997 445.744 380.325 442.864 378.981 440.304C377.637 437.744 375.813 435.728 373.509 434.256C371.269 432.72 368.773 431.952 366.021 431.952C363.205 431.952 360.677 432.72 358.437 434.256C356.197 435.792 354.405 437.84 353.061 440.4C351.717 442.896 351.045 445.776 351.045 449.04Z" fill="#5CCC96"/>
</svg>
